<svg xmlns="http://www.w3.org/2000/svg" xmlns:xlink="http://www.w3.org/1999/xlink" width="428.343" height="408.533" viewBox="0 0 428.343 408.533">
  <defs>
    <linearGradient id="linear-gradient" x1="1" y1="0.5" x2="0" y2="0.5" gradientUnits="objectBoundingBox">
      <stop offset="0" stop-color="#4a332b"/>
      <stop offset="1" stop-color="#382723"/>
    </linearGradient>
    <linearGradient id="linear-gradient-2" x1="2962.724" y1="-1000.812" x2="2961.784" y2="-1000.812" xlink:href="#linear-gradient"/>
  </defs>
  <g id="Group_4153" data-name="Group 4153" transform="translate(-1178.017 -312)">
    <g id="Group_92" data-name="Group 92" transform="translate(1529.822 390.333)">
      <path id="Path_11684" data-name="Path 11684" d="M5048.164,1483.393c0,6.345-7.819,28.068-12.813,38.034a4.548,4.548,0,0,1-8.13,0c-5-9.967-12.813-31.689-12.813-38.034a16.878,16.878,0,1,1,33.757,0Z" transform="translate(-5014.407 -1466.515)" fill="#ffcf03"/>
      <ellipse id="Ellipse_340" data-name="Ellipse 340" cx="8.011" cy="8.011" rx="8.011" ry="8.011" transform="translate(8.868 9.761)" fill="#fff"/>
    </g>
    <g id="Group_93" data-name="Group 93" transform="translate(1178.017 312)">
      <g id="Group_2510" data-name="Group 2510" transform="translate(0)">
        <g id="Group_2509" data-name="Group 2509">
          <rect id="Rectangle_360" data-name="Rectangle 360" width="2.567" height="49.353" transform="matrix(-0.59, -0.807, 0.807, -0.59, 371.641, 256.951)" fill="#4f1a26"/>
          <circle id="Ellipse_341" data-name="Ellipse 341" cx="51.856" cy="51.856" r="51.856" transform="translate(73.335 408.533) rotate(-135)" fill="#494948"/>
          <ellipse id="Ellipse_342" data-name="Ellipse 342" cx="44.133" cy="44.133" rx="44.133" ry="44.133" transform="translate(97.721 392.65) rotate(-157.999)" fill="#6d6c6c"/>
          <ellipse id="Ellipse_343" data-name="Ellipse 343" cx="32.41" cy="32.41" rx="32.41" ry="32.41" transform="translate(46.584 372.416) rotate(-99.293)" fill="#8a8888"/>
          <ellipse id="Ellipse_344" data-name="Ellipse 344" cx="15.006" cy="15.006" rx="15.006" ry="15.006" transform="translate(59.632 352.421) rotate(-99.252)" fill="#494948"/>
          <circle id="Ellipse_345" data-name="Ellipse 345" cx="51.856" cy="51.856" r="51.856" transform="translate(349.488 408.533) rotate(-135)" fill="#494948"/>
          <ellipse id="Ellipse_346" data-name="Ellipse 346" cx="44.133" cy="44.133" rx="44.133" ry="44.133" transform="translate(373.874 392.65) rotate(-157.999)" fill="#6d6c6c"/>
          <ellipse id="Ellipse_347" data-name="Ellipse 347" cx="32.41" cy="32.41" rx="32.41" ry="32.41" transform="translate(322.926 372.551) rotate(-99.583)" fill="#8a8888"/>
          <ellipse id="Ellipse_348" data-name="Ellipse 348" cx="15.006" cy="15.006" rx="15.006" ry="15.006" transform="translate(337.09 352.421) rotate(-99.252)" fill="#494948"/>
          <rect id="Rectangle_361" data-name="Rectangle 361" width="4.538" height="13.287" transform="translate(349.4 227.12)" fill="#4f1a26"/>
          <rect id="Rectangle_362" data-name="Rectangle 362" width="4.538" height="13.287" transform="translate(324.915 227.12)" fill="#4f1a26"/>
          <g id="Group_2503" data-name="Group 2503" transform="translate(164.746 198.466)">
            <path id="Path_11685" data-name="Path 11685" d="M304.611,246.023c-6.357,10.928-6.533,23.131-42.737,25.005-34.474,1.785-47.459,7.724-61.476,6.362-10.081-.98-13.415-26.346.457-27.364,15.85-1.161,60.693-4.239,60.693-4.239Z" transform="translate(-167.834 -245.788)" fill="#313133"/>
            <path id="Path_11686" data-name="Path 11686" d="M310.957,272.047l-28.941,95.019-22.781-.4s26.36-102.451,29.053-112.279C297.259,257.98,310.957,272.047,310.957,272.047Z" transform="translate(-259.234 -243.57)" fill="#313133"/>
          </g>
          <path id="Path_11687" data-name="Path 11687" d="M279.612,285.492s105.621,1.992,113.261,2.324,9.859,1.96,8.967,4.982c-.548,1.862-.433,3.859,3.033,7.743a138.451,138.451,0,0,0,11.944,11.684c9.408,7.8-71.487,63.682-75.432,67.052-8.182,6.983-14.568,12.372-14.568,12.372s-119.612.128-132.565.128-57.464-46.85-63.232-72.346c21.58-11.911,31.476-39.039,36.029-49.358s18.329-46.711,19.448-50.963,10.515-1.566,6.488,7.607S173.3,278.85,171.059,288.247s-2.685,21.7,4.7,37.141,23.94,36.693,27.52,40.719,11.635,6.489,22.374,6.489h51.46c8.727,0,29.4-16.542,30.205-36.469C308.657,303.014,279.612,285.492,279.612,285.492Z" transform="translate(-39.84 -54.706)" fill="#feb206"/>
          <path id="Path_11688" data-name="Path 11688" d="M238.191,358.829s-4.528-51.555-52.575-68.938c-35.522-12.852-73.444,3.443-86.5,35.8-8.508,21.092-2.3,44.381-.161,49.557C120.2,379.536,222.661,370.967,238.191,358.829Z" transform="translate(185.151 -37.086)" fill="#ffcf03"/>
          <path id="Path_11689" data-name="Path 11689" d="M200.617,355.734H345.072a3.8,3.8,0,1,1,0,7.591H200.617a3.8,3.8,0,1,1,0-7.591Z" transform="translate(-53.896 -18.976)" fill="#ffcf00"/>
          <path id="Path_11690" data-name="Path 11690" d="M258.053,275.632c10.352-.317,11.23-11.768.617-12.271s-64.781,3.921-68.961,4.243-3.976,7.88,1.509,7.943C200.478,275.654,244.819,276.037,258.053,275.632Z" transform="translate(41.329 -42.801)" fill="#4f4b4c"/>
          <path id="Rectangle_363" data-name="Rectangle 363" d="M1.169,0H104.318a1.169,1.169,0,0,1,1.169,1.169V75.579a0,0,0,0,1,0,0H0a0,0,0,0,1,0,0V1.169A1.169,1.169,0,0,1,1.169,0Z" transform="translate(315.554 150.434)" fill="#fecc08"/>
          <path id="Path_11691" data-name="Path 11691" d="M202.08,217.332V280.67H96.592V255.759C155.91,268.824,187.944,252.055,202.08,217.332Z" transform="translate(218.962 -54.658)" fill="#ffb106"/>
          <line id="Line_28" data-name="Line 28" y2="76.564" transform="translate(368.921 149.244)" fill="none" stroke="#622131" stroke-linecap="round" stroke-width="3"/>
          <path id="Path_11692" data-name="Path 11692" d="M93.759,272.071H206.032a2.972,2.972,0,0,0,0-5.943H93.759a2.972,2.972,0,1,0,0,5.943Z" transform="translate(219.341 -42.078)" fill="#622131"/>
          <g id="Group_2504" data-name="Group 2504" transform="translate(123.532 158.224)">
            <path id="Path_11693" data-name="Path 11693" d="M334.216,213.829V241.41C327.092,240.506,327.092,214.732,334.216,213.829Z" transform="translate(-328.873 -213.785)" fill="#a7d4f5"/>
            <path id="Path_11694" data-name="Path 11694" d="M328.4,227.558a13.826,13.826,0,0,1-10.831,13.486V214.07A13.827,13.827,0,0,1,328.4,227.558Z" transform="translate(-308.841 -213.723)" fill="#ffcc0c"/>
            <path id="Path_11695" data-name="Path 11695" d="M326.563,213.794a13.829,13.829,0,0,1,3,.347v26.974a13.828,13.828,0,0,1-3,.348,2.937,2.937,0,0,1-.382-.044V213.838A2.927,2.927,0,0,1,326.563,213.794Z" transform="translate(-320.838 -213.794)" fill="#a0a09f"/>
          </g>
          <g id="Group_2508" data-name="Group 2508" transform="translate(143.937 2.271)">
            <path id="Path_11696" data-name="Path 11696" d="M285.489,337.916s-16.709,1.757-19.292,2.274-31.247,8.522-31.247,15.993c3.059,0,13.676.005,28.559.005,9.1,0,28.594.936,31.221-.005.792-.284,2.421-2.816,1.128-5.348C293.518,346.25,287.094,337.843,285.489,337.916Z" transform="translate(-193.265 -25.841)" fill="#494948"/>
            <rect id="Rectangle_364" data-name="Rectangle 364" width="59.779" height="4.073" transform="translate(41.686 330.342)" fill="#494948"/>
            <rect id="Rectangle_365" data-name="Rectangle 365" width="17.847" height="19.299" transform="matrix(-0.809, 0.588, -0.588, -0.809, 115.831, 79.557)" fill="#e1a57c"/>
            <path id="Path_11697" data-name="Path 11697" d="M316.028,215.976c-4.786,1.908-22.639,9.362-50.5,8.367-3.141-1.338-16.59-2.362-16.59-2.362s1.923-3.775,7.447-4.127c11.686-.746,18.123-2.1,27.316-3.229a91.873,91.873,0,0,0,25.692-6.961c4.629-1.956,12.566-7.772,12.566-7.772l9.241,8.995A117.822,117.822,0,0,1,316.028,215.976Z" transform="translate(-245.72 -61.425)" fill="#e1a57c"/>
            <path id="Path_11698" data-name="Path 11698" d="M266.072,158.989c-6.772-3.884-14.989-1.1-21.148,12.191s-14.89,27.779-32.121,37.107c1.518,7.445,12.32,13.191,12.32,13.191s25.8-10.967,34.534-25.545C271.062,176.89,272.844,162.871,266.072,158.989Z" transform="translate(-139.098 -72.386)" fill="#f4b608"/>
            <path id="Path_11699" data-name="Path 11699" d="M313,247.139c-.186,11.335-6.533,23.131-42.737,25.005-34.474,1.785-55.848,2.283-69.865.919-10.081-.98-13.415-26.345.457-27.363,15.85-1.162,60.693-4.239,60.693-4.239Z" transform="translate(-155.415 -50.708)" fill="#313133"/>
            <path id="Path_11700" data-name="Path 11700" d="M272.092,262.188l26.683,95.677-22.944,3.245S246.5,269.222,243.484,259.488C252.979,257.69,272.092,262.188,272.092,262.188Z" transform="translate(-206.433 -46.17)" fill="#313133"/>
            <path id="Path_11701" data-name="Path 11701" d="M253.46,270.435c.025-12.089-6.936-63.076-13.762-83.7-6.917-20.9-19.11-39.048-32.548-35.082-22.013,6.5-14.558,32.073-13.364,50.879s8.222,62.232,8.222,62.232A274.05,274.05,0,0,0,253.46,270.435Z" transform="translate(-95.873 -74.004)" fill="#f9740d"/>
            <path id="Path_11702" data-name="Path 11702" d="M317.968,221.125c-4.619,2.1-9.146,10.722-48.138,7.546-5.817.443-13.938-1.477-13.938-1.477s.5-9.655,8.8-9.124c5.327.342,13.52,1.874,22.346.775a76.263,76.263,0,0,0,24.731-7.461c4.468-2.156,12.177-8.694,12.177-8.694l8.681,10.591A104.708,104.708,0,0,1,317.968,221.125Z" transform="translate(-255.892 -60.704)" fill="#efc1a1"/>
            <rect id="Rectangle_366" data-name="Rectangle 366" width="19.076" height="30.805" transform="translate(116.44 81.437) rotate(139.165)" fill="none"/>
            <path id="Path_11703" data-name="Path 11703" d="M272.441,156.393c-6.414-4.635-14.334-1.609-20.477,13.6s-14.772,31.738-31.445,42.123c1.316,8.63,11.554,15.5,11.554,15.5s24.912-12.085,33.542-28.721C276.888,177.172,278.854,161.027,272.441,156.393Z" transform="translate(-154.843 -73.153)" fill="#f99829"/>
            <g id="Group_2507" data-name="Group 2507" transform="translate(51.816)">
              <g id="Group_2506" data-name="Group 2506" transform="translate(0)">
                <path id="Path_11704" data-name="Path 11704" d="M267.929,159.235s-28.428,20.216-36.919,13.5c-1.282-1.01-4.83-10.2-7.017-16.9-3.233-9.9-5.726-22.983-3.946-31.935,2.943-14.791,18.32-36.123,32.6-32.21S299.565,112.7,267.929,159.235Z" transform="translate(-210.53 -89.443)" fill="#efc1a1"/>
                <path id="Path_11705" data-name="Path 11705" d="M272.034,126.952c.023-.018.033-.024.063-.044l-.86-1.78a69.127,69.127,0,0,1-9.569,9.586,2.223,2.223,0,0,0,.338,3.6c8.024,4.465,14.518-3.01,12.064-12.013a5.658,5.658,0,0,0-2.035.655C271.56,127.269,271.627,127.168,272.034,126.952Z" transform="translate(-255.982 -80.7)" fill="#efc1a1"/>
                <path id="Path_11706" data-name="Path 11706" d="M220.55,117.681s-12.168-9.647-.521-17.9c-3.3,8.691,1.477,12.95,1.477,12.95a7.288,7.288,0,0,1,1.565-5.477c.169,4.557,2.869,4,6.893-1.317s5.465-8.51,10.573-11.563c5.573-3.331,11.182-5.595,20.426-4.09s17.012,4.636,25.095,14.6,6.593,24.55,3.055,32.75c-3.63,8.425-10.957,18.055-17.253,24.585-5.256-2.026-7.948-16.11-9.705-23-3.482-5.815-9.5-2.322-11.862-6.936-.928-1.818-1.208-4.836-1.306-8.222-9.993,4.768-32.058,3.438-36.344-12.725C214.728,115.162,220.55,117.681,220.55,117.681Z" transform="translate(-212.641 -89.807)" fill="url(#linear-gradient)"/>
                <path id="Path_11707" data-name="Path 11707" d="M247.644,128.606c-1.158,4.748-5.869,10-8.988,9.244s-4.713-5.225-3.557-9.972,4.235-10.83,8.323-9.585C246.494,119.23,248.8,123.862,247.644,128.606Z" transform="translate(-196.4 -82.505)" fill="#efc1a1"/>
                <g id="Group_2505" data-name="Group 2505" transform="translate(12.515 36.354)">
                  <path id="Path_11708" data-name="Path 11708" d="M259.734,118.757c6.412-.457,11.168,2.508,5.25,2.553S256.387,119,259.734,118.757Z" transform="translate(-258.274 -118.709)" fill="url(#linear-gradient-2)"/>
                  <path id="Path_11709" data-name="Path 11709" d="M265.308,126.944c-1.873-3.309-5.541-1.843-5.287,1.046" transform="translate(-258.082 -117.074)" fill="none" stroke="#452f20" stroke-width="0.821"/>
                </g>
              </g>
            </g>
            <rect id="Rectangle_367" data-name="Rectangle 367" width="29.763" height="8.607" rx="1.312" transform="translate(95.257 312.603) rotate(172.419)" fill="#313133"/>
          </g>
          <path id="Path_11710" data-name="Path 11710" d="M392.741,299.8C337.874,280.7,320.7,332.961,320.7,332.961s29.057-6.678,51.256,8.663c25.478,17.607,38.45,31.777,57.58,26.183C433.227,359.755,426.343,311.505,392.741,299.8Z" transform="translate(-291.283 -34.478)" fill="#feb206"/>
          <ellipse id="Ellipse_349" data-name="Ellipse 349" cx="7.54" cy="7.54" rx="7.54" ry="7.54" transform="translate(143.37 163.639)" fill="#3f3e3e"/>
          <ellipse id="Ellipse_350" data-name="Ellipse 350" cx="3.644" cy="3.644" rx="3.644" ry="3.644" transform="translate(147.266 167.535)" fill="#2e2e2d"/>
          <path id="Path_11711" data-name="Path 11711" d="M274.878,150.051s19.3-41.519-13.408-57.707-50.177,18.091-50.177,18.091l27.325,14.726s-.507,4.318-.867,10.927c-.331,6.088.728,17.008,10.787,20.45C259.583,160.316,270.444,156.8,274.878,150.051Z" transform="translate(-3.767 -88.001)" fill="#fecc08"/>
          <path id="Path_11712" data-name="Path 11712" d="M253.795,112.31c1.95,15.828-5.322,31.474-5.322,31.474-4.434,6.751-15.3,10.265-26.34,6.487-10.059-3.441-11.118-14.362-10.787-20.45.018-.323.036-.636.054-.947A46.509,46.509,0,0,0,253.795,112.31Z" transform="translate(22.638 -81.734)" fill="#ffcf03"/>
          <path id="Path_11713" data-name="Path 11713" d="M279.376,145.453s-6.245,10.47-22.493,7.419c-10.832-2.06-14.569-10.451-14.569-18.385a116.371,116.371,0,0,1,.8-13.923l-27.325-14.726" transform="translate(-8.265 -83.403)" fill="none" stroke="#ffb106" stroke-linecap="round" stroke-linejoin="round" stroke-width="1.3"/>
          <path id="Path_11714" data-name="Path 11714" d="M99.119,322.979a62.68,62.68,0,0,1,20.926-26.957c-10.093,38.416,47.565,90.878,117.009,53.223a63.736,63.736,0,0,1,1.137,6.869C222.661,368.252,120.2,376.82,98.958,372.536,96.816,367.359,90.611,344.072,99.119,322.979Z" transform="translate(185.151 -34.371)" fill="#ffe10d"/>
          <path id="Path_11715" data-name="Path 11715" d="M165.561,285.65c-28.814-1.936-55.837,13.752-66.443,40.045-8.508,21.092-2.3,44.381-.161,49.557,21.242,4.284,123.7-4.284,139.234-16.422" transform="translate(185.151 -37.086)" fill="none" stroke="#464548" stroke-width="2.109"/>
          <path id="Path_11716" data-name="Path 11716" d="M323.147,298.345c.751.239,1.506.487,2.27.753,33.6,11.7,40.486,59.95,36.8,68-14.652,4.285-25.7-3.03-41.513-14.6C333.951,347.021,343.2,325.268,323.147,298.345Z" transform="translate(-223.96 -33.772)" fill="#feb206"/>
        </g>
      </g>
      <path id="Path_11717" data-name="Path 11717" d="M255.107,146.708l11.464-8.815-9.218,14.928Z" transform="translate(-44.912 -75.138)" fill="#fff"/>
    </g>
  </g>
</svg>
