<svg xmlns="http://www.w3.org/2000/svg" width="125.693" height="92.313" viewBox="0 0 125.693 92.313">
  <g id="Group_4179" data-name="Group 4179" transform="translate(-124.492 -337.048)">
    <path id="Path_26178" data-name="Path 26178" d="M250.185,428.121a3.118,3.118,0,0,1-2.848,1.24q-60.015-.037-120.029-.021c-.123,0-.246,0-.369,0-1.451-.016-2.285-.608-2.428-1.723s.518-1.874,1.934-2.232a1.887,1.887,0,0,1,1.269-.353c7.419,0,14.839-.054,22.257.023,2.319-.043,4.637-.048,6.956,0,6.609-.08,13.217-.03,19.826-.03,5.793,0,11.586-.056,17.378.031,1.967-.033,3.934-.049,5.9.005.7-.032,1.408-.029,2.113,0,4.523-.052,9.046-.06,13.569,0,.705-.027,1.411-.033,2.116,0,2.289-.05,4.577-.047,6.866-.005,7.422-.075,14.843-.026,22.265-.024a1.889,1.889,0,0,1,1.27.353,2.745,2.745,0,0,1,1.953,1.263Z" fill="#656d78"/>
    <path id="Path_26179" data-name="Path 26179" d="M224.639,425.377l-6.868-.008c-.547-.629-.378-1.4-.379-2.115q-.018-14.349-.007-28.7c0-3.338.08-3.105-3.047-3.109q-5.4-.006-10.792,0c-3.127,0-3.048-.229-3.047,3.109q0,14.349-.008,28.7c0,.717.168,1.485-.378,2.114l-5.894.005a1.948,1.948,0,0,1-.347-1.479c-.043-1.724-.039-1.724-1.62-2.3-.406-.438-.312-.99-.338-1.511-.074-1.436-.622-2.151-1.65-2.134s-1.531.723-1.61,2.18c-.028.52.07,1.077-.379,1.494a2.179,2.179,0,0,1-1.833.022c-.55-.466-.382-1.116-.423-1.706-.091-1.307-.669-2.012-1.661-1.99-.945.021-1.494.7-1.589,1.939-.045.593.118,1.237-.383,1.733a2.173,2.173,0,0,1-1.835.024c-.551-.465-.383-1.115-.424-1.706-.09-1.307-.668-2.012-1.66-1.99-.946.021-1.495.7-1.59,1.939-.045.593.119,1.237-.383,1.733a2.173,2.173,0,0,1-1.835.024c-.551-.465-.382-1.115-.423-1.706-.091-1.307-.669-2.012-1.661-1.99-.946.021-1.495.7-1.59,1.939-.045.593.119,1.237-.383,1.733a2.173,2.173,0,0,1-1.835.024c-.52-.425-.389-1.03-.421-1.583-.081-1.414-.641-2.135-1.663-2.113-.977.021-1.511.72-1.593,2.06-.035.556.094,1.155-.379,1.611a2.172,2.172,0,0,1-1.833.027c-.557-.467-.384-1.121-.426-1.714-.092-1.308-.683-2.018-1.683-1.985-.95.032-1.485.711-1.569,1.974-.037.561.086,1.156-.31,1.651-1.6.609-1.6.609-1.651,2.429a1.81,1.81,0,0,1-.349,1.369l-6.852,0a1.2,1.2,0,0,1-.364-.987c.1-1.458-.327-2.935.161-4.377.3-.355.183-.78.183-1.176q.006-16.328,0-32.656c.6-.61,1.374-.433,2.087-.434q12.561-.023,25.123-.009,22.612,0,45.223.009c.752,0,1.57-.2,2.209.434q0,16.447,0,32.9c0,.4-.117.824.182,1.18A9.688,9.688,0,0,1,224.639,425.377Z" fill="#e5e8ec"/>
    <path id="Path_26180" data-name="Path 26180" d="M178.475,366.475c-3.518.009-7.036.031-10.554.019a1.946,1.946,0,0,1-2.181-2.21q-.02-12.518,0-25.036a1.952,1.952,0,0,1,2.206-2.192q19.391-.016,38.78,0a1.955,1.955,0,0,1,2.209,2.191q.021,12.519,0,25.036a1.948,1.948,0,0,1-2.183,2.211c-3.845.012-7.69-.009-11.535-.017a1.42,1.42,0,0,1-.39-1.1c.05-1.554-.235-3.124.2-4.661.619-.67,1.442-.446,2.19-.453,3.378-.032,3.508-.149,3.507-3.54,0-1.919.028-3.839-.008-5.757a7.515,7.515,0,0,0-6.284-7.525c-1.952-.389-2.791.265-2.8,2.247-.024,4.614.006,9.228-.011,13.844.05,1.783.04,3.566.029,5.348a2.085,2.085,0,0,1-.408,1.6l-1.915.032a4.785,4.785,0,0,1-3.977,0l-2.9-.032a1.118,1.118,0,0,1-.355-.762,71.408,71.408,0,0,1,.1-8.814c.259-.536.78-.5,1.255-.568,2.378-.335,3.493-1.592,3.539-4,.014-.771-.005-1.542-.006-2.313.01-1.552.024-3.1-.014-4.656-.031-1.274-.688-2-1.693-1.962-.949.035-1.427.71-1.525,2-.087,1.163.287,2.37-.309,3.489a.933.933,0,0,1-1.005.036c-.449-.468-.334-1.065-.357-1.626a18.855,18.855,0,0,0-.071-2.448,1.688,1.688,0,0,0-1.686-1.481,1.51,1.51,0,0,0-1.44,1.551c-.088.814-.02,1.634-.044,2.451a2.28,2.28,0,0,1-.317,1.526.938.938,0,0,1-1.007.021c-.558-.718-.291-1.562-.346-2.354-.039-.567.034-1.141-.055-1.705a1.654,1.654,0,0,0-1.653-1.485A1.453,1.453,0,0,0,174,344.875c-.135,1.7-.034,3.412-.059,5.118,0,.851-.028,1.7,0,2.552a3.593,3.593,0,0,0,3.37,3.773c.5.074,1.081-.016,1.4.548.4,2.418.106,4.853.17,7.279A3.055,3.055,0,0,1,178.475,366.475Z" fill="#ec5565"/>
    <path id="Path_26181" data-name="Path 26181" d="M224.659,386.181c-.367-.013-.734-.039-1.1-.039q-36.219,0-72.44,0c-.367,0-.734.026-1.1.039-.2-.013-.4-.036-.608-.038-2.987-.037-3.343-.374-3.3-3.419.014-.907-.3-1.858.219-2.73a7.375,7.375,0,0,1,1.7-.15q39.3.008,78.606,0a7.792,7.792,0,0,1,1.705.146,11.256,11.256,0,0,1,.086,4.791,1.718,1.718,0,0,1-1.82,1.349C225.962,386.162,225.311,386.165,224.659,386.181Z" fill="#ec5565"/>
    <path id="Path_26182" data-name="Path 26182" d="M228.347,379.99c-.355.415-.838.252-1.267.252q-39.739.01-79.48,0c-.429,0-.911.163-1.268-.248l3.693-5.635a3.165,3.165,0,0,1,2.239-.4q18.763-.015,37.527-.007,16.311,0,32.622.007a3.163,3.163,0,0,1,2.238.4Z" fill="#d94453"/>
    <path id="Path_26183" data-name="Path 26183" d="M224.651,374.359H150.025q0-1.654,0-3.31c0-2.009.59-2.583,2.647-2.584l32.727-.008a4.628,4.628,0,0,1,3.882,0l32.238.009c2.769,0,3.137.374,3.137,3.2Q224.652,373.012,224.651,374.359Z" fill="#e5e8ec"/>
    <path id="Path_26184" data-name="Path 26184" d="M224.639,425.377c.112-1.705-.179-3.426.2-5.12a3.871,3.871,0,0,1,3.479-2.675c1.9-.13,3.144.888,4.125,2.759a4.935,4.935,0,0,1,1.075-3.433,3.884,3.884,0,0,1,3.172-1.3c2.15.121,3.446,1.661,3.777,4.618.946-1.77,2.246-2.786,4.235-2.654a3.47,3.47,0,0,1,3.5,3.523c.058,1.428.023,2.86.03,4.29Z" fill="#9fd368"/>
    <path id="Path_26185" data-name="Path 26185" d="M149.835,420.013a36.682,36.682,0,0,1,.2,5.364l-23.594.008c0-1.185,0-2.37.012-3.555a3.937,3.937,0,0,1,7.461-2.054c.061.1.135.194.336.482a4.786,4.786,0,0,1,1.074-3.349,3.858,3.858,0,0,1,3.171-1.3c2.143.122,3.428,1.65,3.778,4.623.984-1.9,2.4-2.889,4.476-2.637A3.394,3.394,0,0,1,149.835,420.013Z" fill="#9fd368"/>
    <path id="Path_26186" data-name="Path 26186" d="M182.462,356.7q-.006,4.887-.012,9.775l-3.975,0q-.006-4.886-.011-9.771A4.409,4.409,0,0,1,182.462,356.7Z" fill="#cbd0d8"/>
    <path id="Path_26187" data-name="Path 26187" d="M191.242,366.477l.066-7.093c1.122,1,2.662.677,3.92,1.246q-.006,2.924-.011,5.848Z" fill="#cbd0d8"/>
    <path id="Path_26188" data-name="Path 26188" d="M189.279,368.456H185.4q-.024-.975-.047-1.948h3.977Z" fill="#d94453"/>
    <path id="Path_26189" data-name="Path 26189" d="M215.828,425.377H202.055a1.963,1.963,0,0,1-.381-1.5c-.015-3.879-.024-7.758,0-11.636.011-1.651.293-1.933,1.938-1.944q5.328-.039,10.656,0c1.645.011,1.927.293,1.938,1.944.026,3.878.017,7.757,0,11.635A1.96,1.96,0,0,1,215.828,425.377Z" fill="#5d9beb"/>
    <path id="Path_26190" data-name="Path 26190" d="M215.828,425.377c0-4.533-.028-9.067.006-13.6.006-.83-.185-1.125-1.073-1.114q-5.818.07-11.639,0c-.888-.011-1.078.285-1.072,1.115.033,4.533.009,9.066,0,13.6l-1.942-.008q0-16.381-.023-32.762c0-1.18.468-1.58,1.613-1.571q7.239.053,14.478,0c1.145-.008,1.616.392,1.613,1.572q-.041,16.382-.023,32.762Z" fill="#fefefe"/>
    <path id="Path_26191" data-name="Path 26191" d="M156.89,425.374q0-.918.007-1.837c0-1.938.04-1.98,1.959-2.083a5.089,5.089,0,0,1,3.938,0h1.954a5.093,5.093,0,0,1,3.938,0h1.953a5.089,5.089,0,0,1,3.938,0h1.953a5.091,5.091,0,0,1,3.939,0h1.951a5.091,5.091,0,0,1,3.939,0h1.956a5.089,5.089,0,0,1,3.938,0c1.924.1,1.958.14,1.959,2.083,0,.612,0,1.225.007,1.837q-10.036.021-20.072.038C168.4,425.413,162.643,425.388,156.89,425.374Z" fill="#ec5565"/>
    <path id="Path_26192" data-name="Path 26192" d="M175.545,391.05q8.462,0,16.924,0c1.575,0,1.742.172,1.742,1.777q0,9.014,0,18.028c0,1.625-.162,1.8-1.723,1.8q-16.923,0-33.848,0c-1.575,0-1.742-.172-1.742-1.777q0-9.014,0-18.028c0-1.653.149-1.8,1.845-1.8Q167.144,391.048,175.545,391.05Z" fill="#fefefe"/>
    <path id="Path_26193" data-name="Path 26193" d="M162.794,421.454h-3.938c0-.693-.032-1.39.025-2.079a1.95,1.95,0,0,1,3.889,0C162.827,420.064,162.789,420.761,162.794,421.454Z" fill="#a0d368"/>
    <path id="Path_26194" data-name="Path 26194" d="M168.686,421.454h-3.939c.005-.693-.032-1.39.025-2.079a1.95,1.95,0,0,1,3.889,0C168.718,420.064,168.681,420.761,168.686,421.454Z" fill="#a0d368"/>
    <path id="Path_26195" data-name="Path 26195" d="M174.577,421.454h-3.938c0-.693-.032-1.39.024-2.079a1.95,1.95,0,0,1,3.889,0C174.61,420.064,174.572,420.761,174.577,421.454Z" fill="#a0d368"/>
    <path id="Path_26196" data-name="Path 26196" d="M180.469,421.455H176.53c.005-.693-.032-1.39.024-2.079a1.95,1.95,0,0,1,3.889,0C180.5,420.064,180.464,420.761,180.469,421.455Z" fill="#a0d368"/>
    <path id="Path_26197" data-name="Path 26197" d="M186.359,421.454H182.42c.006-.693-.031-1.39.026-2.079a1.949,1.949,0,0,1,3.888,0C186.392,420.064,186.354,420.761,186.359,421.454Z" fill="#a0d368"/>
    <path id="Path_26198" data-name="Path 26198" d="M192.253,421.454h-3.938c.005-.693-.033-1.39.024-2.079a1.95,1.95,0,0,1,3.889,0C192.286,420.064,192.248,420.761,192.253,421.454Z" fill="#a0d368"/>
    <path id="Path_26199" data-name="Path 26199" d="M195.228,360.63c-.53-.007-1.064-.057-1.589-.012a2.309,2.309,0,0,1-2.331-1.234c-.015-4.822-.048-9.644-.035-14.467,0-1.328.846-2.011,2.254-1.978a7.907,7.907,0,0,1,7.531,7.479c.086,2.7.043,5.395.015,8.092a1.938,1.938,0,0,1-2.167,2.1C197.681,360.638,196.454,360.625,195.228,360.63Z" fill="#e5e8ec"/>
    <path id="Path_26200" data-name="Path 26200" d="M182.462,356.7l-4,0c-3.144-.064-4.833-1.435-4.872-3.981-.014-.891.025-1.782.04-2.672.571-1.567,2.038-2.032,3.912-1.242l.926,0a4.9,4.9,0,0,1,3.984,0h.928c1.8-.759,3.364-.263,3.911,1.244.015.566-.01,1.136.052,1.7C187.674,354.742,185.782,357,182.462,356.7Z" fill="#e5e8ec"/>
    <path id="Path_26201" data-name="Path 26201" d="M177.544,348.809c-.61.006-1.222.043-1.83.01a2.237,2.237,0,0,0-2.082,1.232c-.014-1.673-.055-3.347-.033-5.02a1.932,1.932,0,0,1,1.932-2.08,1.98,1.98,0,0,1,1.976,2.062C177.546,346.278,177.534,347.544,177.544,348.809Z" fill="#cbd0d8"/>
    <path id="Path_26202" data-name="Path 26202" d="M187.293,350.052c-.922-1.616-2.51-1.136-3.911-1.244.01-1.265,0-2.53.036-3.794a1.938,1.938,0,0,1,1.959-2.06,1.976,1.976,0,0,1,1.949,2.081C187.349,346.707,187.307,348.379,187.293,350.052Z" fill="#cbd0d8"/>
    <path id="Path_26203" data-name="Path 26203" d="M182.454,348.809l-3.984,0c.01-1.263,0-2.526.035-3.788a1.942,1.942,0,0,1,1.941-2.068,2,2,0,0,1,1.97,2.071C182.455,346.283,182.444,347.547,182.454,348.809Z" fill="#cbd0d8"/>
    <path id="Path_26204" data-name="Path 26204" d="M150.351,383.965h73.977v.123H150.3Z" fill="#ec5a69"/>
    <path id="Path_26205" data-name="Path 26205" d="M215.816,400.866c0,2.249-.033,4.5.017,6.748.018.822-.167,1.137-1.066,1.126-3.885-.049-7.772-.039-11.657-.006-.766.006-1.068-.161-1.061-1q.06-6.872,0-13.743c-.008-.855.314-1,1.068-.994,3.886.031,7.772.043,11.657-.007.908-.012,1.076.318,1.059,1.131C215.784,396.366,215.816,398.616,215.816,400.866Z" fill="#5d9beb"/>
    <path id="Path_26206" data-name="Path 26206" d="M175.43,410.683c-5.114,0-10.228-.02-15.341.019-.914.007-1.266-.166-1.254-1.19.057-5.113.046-10.227.007-15.34-.007-.876.166-1.191,1.129-1.188q15.585.055,31.172,0c.969,0,1.13.323,1.124,1.192-.038,5.113-.05,10.228.008,15.34.011,1.031-.353,1.192-1.259,1.185C185.821,410.664,180.625,410.683,175.43,410.683Z" fill="#5d9beb"/>
  </g>
</svg>
