<svg xmlns="http://www.w3.org/2000/svg" width="1190.185" height="87.968" viewBox="0 0 1190.185 87.968">
  <g id="Group_3969" data-name="Group 3969" transform="translate(-364.815 -901)">
    <g id="Group_56" data-name="Group 56" transform="translate(64 -268.941)">
      <g id="Group_56-2" data-name="Group 56" transform="translate(728 1184)">
        <g id="Group_56-3" data-name="Group 56">
          <text id="ALONZO" transform="translate(-0.812 35.941)" fill="#f1f2f2" font-size="32" font-family="SegoeUI, Segoe UI"><tspan x="0" y="0">ALONZO</tspan></text>
          <text id="CASSETA" transform="translate(37.004 58.35)" fill="#a39369" font-size="13" font-family="SegoeUI, Segoe UI"><tspan x="0" y="0" letter-spacing="0.2em">CASSE</tspan><tspan y="0" letter-spacing="0.1em">T</tspan><tspan y="0">A</tspan></text>
        </g>
      </g>
      <path id="Color_Overlay" data-name="Color Overlay" d="M798.657,1242.468c-.212-.023-.427-.058-.647-.1a5.246,5.246,0,0,1-.625-.165,1.968,1.968,0,0,1-.472-.22v-1.257a2.4,2.4,0,0,0,.518.343,4.111,4.111,0,0,0,.634.258,4.965,4.965,0,0,0,.67.161,3.675,3.675,0,0,0,.622.058,2.446,2.446,0,0,0,1.47-.365,1.369,1.369,0,0,0,.324-1.692,1.843,1.843,0,0,0-.448-.5,4.462,4.462,0,0,0-.676-.43q-.39-.207-.841-.435-.477-.242-.889-.49a3.9,3.9,0,0,1-.717-.545,2.291,2.291,0,0,1-.479-.676,2.1,2.1,0,0,1-.175-.887,2.076,2.076,0,0,1,.273-1.081,2.331,2.331,0,0,1,.717-.759,3.228,3.228,0,0,1,1.013-.445,4.606,4.606,0,0,1,1.158-.147,4.449,4.449,0,0,1,1.962.324v1.2a3.562,3.562,0,0,0-2.07-.558,3.394,3.394,0,0,0-.7.073,1.961,1.961,0,0,0-.623.238,1.375,1.375,0,0,0-.444.426,1.127,1.127,0,0,0-.172.635,1.3,1.3,0,0,0,.13.6,1.456,1.456,0,0,0,.384.464,3.857,3.857,0,0,0,.618.408q.366.2.841.431t.926.508a4.29,4.29,0,0,1,.769.589,2.681,2.681,0,0,1,.524.717,2.028,2.028,0,0,1,.194.9,2.288,2.288,0,0,1-.264,1.139,2.164,2.164,0,0,1-.711.758,3.1,3.1,0,0,1-1.031.423,5.675,5.675,0,0,1-1.231.13A5.235,5.235,0,0,1,798.657,1242.468Zm-9.506,0q-.317-.035-.647-.1a5.155,5.155,0,0,1-.625-.165,1.959,1.959,0,0,1-.473-.22v-1.257a2.424,2.424,0,0,0,.518.343,4.187,4.187,0,0,0,.634.258,4.947,4.947,0,0,0,.671.161,3.667,3.667,0,0,0,.622.058,2.446,2.446,0,0,0,1.47-.365,1.37,1.37,0,0,0,.323-1.692,1.839,1.839,0,0,0-.447-.5,4.552,4.552,0,0,0-.676-.43q-.39-.207-.841-.435-.475-.242-.888-.49a3.869,3.869,0,0,1-.717-.545,2.294,2.294,0,0,1-.48-.676,2.1,2.1,0,0,1-.175-.887,2.076,2.076,0,0,1,.274-1.081,2.331,2.331,0,0,1,.717-.759,3.228,3.228,0,0,1,1.013-.445,4.606,4.606,0,0,1,1.158-.147,4.445,4.445,0,0,1,1.961.324v1.2a3.559,3.559,0,0,0-2.069-.558,3.4,3.4,0,0,0-.7.073,1.956,1.956,0,0,0-.622.238,1.379,1.379,0,0,0-.445.426,1.127,1.127,0,0,0-.171.635,1.309,1.309,0,0,0,.13.6,1.468,1.468,0,0,0,.384.464,3.828,3.828,0,0,0,.619.408q.365.2.841.431t.927.508a4.285,4.285,0,0,1,.768.589,2.644,2.644,0,0,1,.524.717,2.016,2.016,0,0,1,.193.9,2.289,2.289,0,0,1-.263,1.139,2.172,2.172,0,0,1-.711.758,3.114,3.114,0,0,1-1.031.423,5.684,5.684,0,0,1-1.232.13A5.222,5.222,0,0,1,789.151,1242.468Zm-22.383-1.216a4.617,4.617,0,0,1-1.168-3.283,4.835,4.835,0,0,1,1.314-3.528,4.46,4.46,0,0,1,3.333-1.346,5.368,5.368,0,0,1,2.146.374v1.137a4.346,4.346,0,0,0-2.158-.545,3.312,3.312,0,0,0-2.543,1.048,3.94,3.94,0,0,0-.975,2.8,3.762,3.762,0,0,0,.911,2.651,3.1,3.1,0,0,0,2.39.986,4.471,4.471,0,0,0,2.374-.61v1.036a5.353,5.353,0,0,1-2.514.533A4.054,4.054,0,0,1,766.768,1241.252Zm62.339,1.1-.965-2.552h-3.859l-.907,2.552h-1.187l3.491-9.1h1.1l3.5,9.1Zm-3.053-7.389-1.416,3.879h3.154l-1.427-3.879a3.71,3.71,0,0,1-.14-.609H826.2A3.4,3.4,0,0,1,826.054,1234.961Zm-8.346,7.389v-8.138h-2.622v-.966H821.4v.966h-2.628v8.138Zm-10.865,0v-9.1h4.621v.966H807.91v3.028H811.2v.958H807.91v3.187h3.758v.965Zm-24.133,0-.965-2.552h-3.859l-.908,2.552h-1.187l3.491-9.1h1.105l3.5,9.1Zm-3.053-7.389-1.416,3.879H781.4l-1.428-3.879a3.718,3.718,0,0,1-.139-.609H779.8A3.4,3.4,0,0,1,779.658,1234.961Zm52.069-16.888a8.3,8.3,0,0,1-2.118-5.944,8.652,8.652,0,0,1,2.2-6.3,7.918,7.918,0,0,1,5.953-2.265,7.178,7.178,0,0,1,5.585,2.2,8.735,8.735,0,0,1,2.008,6.11,8.594,8.594,0,0,1-2.164,6.133,7.584,7.584,0,0,1-5.8,2.3A7.42,7.42,0,0,1,831.727,1218.073Zm1.945-10.671a6.9,6.9,0,0,0-1.437,4.633,6.521,6.521,0,0,0,1.454,4.484,4.938,4.938,0,0,0,3.89,1.641,4.686,4.686,0,0,0,3.82-1.609,6.984,6.984,0,0,0,1.336-4.578,7.1,7.1,0,0,0-1.336-4.625,4.662,4.662,0,0,0-3.82-1.625A4.875,4.875,0,0,0,833.672,1207.4Zm-67.539,9.773a11.648,11.648,0,0,1-2.867-8.171,12.345,12.345,0,0,1,2.922-8.627,10.2,10.2,0,0,1,7.952-3.217,9.613,9.613,0,0,1,7.477,3.124,11.7,11.7,0,0,1,2.836,8.172q0,5.485-2.906,8.672a10.012,10.012,0,0,1-7.781,3.189A9.837,9.837,0,0,1,766.133,1217.175Zm2.086-15.093a11.328,11.328,0,0,0-.055,13.351,7.008,7.008,0,0,0,5.6,2.524,7.361,7.361,0,0,0,5.812-2.407,9.837,9.837,0,0,0,2.125-6.736q0-4.436-2.063-6.858a7.068,7.068,0,0,0-5.687-2.422A7.218,7.218,0,0,0,768.219,1202.082Zm42.156,17.858v-.734l13.016-19.3H811.422v-2.374h16v.624L814.3,1217.567H827.11v2.373Zm-6.672,0-11.532-17.858a7.519,7.519,0,0,1-.719-1.408h-.094a23.015,23.015,0,0,1,.125,3.078v16.188H788.86v-22.4h3.406l11.219,17.578q.7,1.094.905,1.5h.063a23.669,23.669,0,0,1-.157-3.3v-15.78h2.625v22.4Zm-52.938,0v-22.4h2.625v20.031h9v2.373Zm-6.2,0-2.375-6.28h-9.5l-2.234,6.28h-2.922l8.594-22.4h2.719l8.625,22.4Zm-7.516-18.186-3.484,9.547h7.765l-3.515-9.547a9.064,9.064,0,0,1-.344-1.5h-.063A8.275,8.275,0,0,1,737.047,1201.754Z" fill="#002c53"/>
    </g>
    <g id="Group_56-4" data-name="Group 56" transform="translate(502 -269.941)">
      <g id="Group_56-5" data-name="Group 56" transform="translate(728 1184)">
        <g id="Group_56-6" data-name="Group 56">
          <text id="ALONZo-2" data-name="ALONZo" transform="translate(-0.812 35.941)" fill="#f1f2f2" font-size="32" font-family="SegoeUI, Segoe UI"><tspan x="0" y="0">ALONZo</tspan></text>
          <text id="CASSETA-2" data-name="CASSETA" transform="translate(37.004 58.35)" fill="#a39369" font-size="13" font-family="SegoeUI, Segoe UI"><tspan x="0" y="0" letter-spacing="0.2em">CASSE</tspan><tspan y="0" letter-spacing="0.1em">T</tspan><tspan y="0">A</tspan></text>
        </g>
      </g>
      <path id="Color_Overlay-2" data-name="Color Overlay" d="M798.657,1242.468c-.212-.023-.427-.058-.647-.1a5.246,5.246,0,0,1-.625-.165,1.968,1.968,0,0,1-.472-.22v-1.257a2.4,2.4,0,0,0,.518.343,4.111,4.111,0,0,0,.634.258,4.965,4.965,0,0,0,.67.161,3.675,3.675,0,0,0,.622.058,2.446,2.446,0,0,0,1.47-.365,1.369,1.369,0,0,0,.324-1.692,1.843,1.843,0,0,0-.448-.5,4.462,4.462,0,0,0-.676-.43q-.39-.207-.841-.435-.477-.242-.889-.49a3.9,3.9,0,0,1-.717-.545,2.291,2.291,0,0,1-.479-.676,2.1,2.1,0,0,1-.175-.887,2.076,2.076,0,0,1,.273-1.081,2.331,2.331,0,0,1,.717-.759,3.228,3.228,0,0,1,1.013-.445,4.606,4.606,0,0,1,1.158-.147,4.449,4.449,0,0,1,1.962.324v1.2a3.562,3.562,0,0,0-2.07-.558,3.394,3.394,0,0,0-.7.073,1.961,1.961,0,0,0-.623.238,1.375,1.375,0,0,0-.444.426,1.127,1.127,0,0,0-.172.635,1.3,1.3,0,0,0,.13.6,1.456,1.456,0,0,0,.384.464,3.857,3.857,0,0,0,.618.408q.366.2.841.431t.926.508a4.29,4.29,0,0,1,.769.589,2.681,2.681,0,0,1,.524.717,2.028,2.028,0,0,1,.194.9,2.288,2.288,0,0,1-.264,1.139,2.164,2.164,0,0,1-.711.758,3.1,3.1,0,0,1-1.031.423,5.675,5.675,0,0,1-1.231.13A5.235,5.235,0,0,1,798.657,1242.468Zm-9.506,0q-.317-.035-.647-.1a5.155,5.155,0,0,1-.625-.165,1.959,1.959,0,0,1-.473-.22v-1.257a2.424,2.424,0,0,0,.518.343,4.187,4.187,0,0,0,.634.258,4.947,4.947,0,0,0,.671.161,3.667,3.667,0,0,0,.622.058,2.446,2.446,0,0,0,1.47-.365,1.37,1.37,0,0,0,.323-1.692,1.839,1.839,0,0,0-.447-.5,4.552,4.552,0,0,0-.676-.43q-.39-.207-.841-.435-.475-.242-.888-.49a3.869,3.869,0,0,1-.717-.545,2.294,2.294,0,0,1-.48-.676,2.1,2.1,0,0,1-.175-.887,2.076,2.076,0,0,1,.274-1.081,2.331,2.331,0,0,1,.717-.759,3.228,3.228,0,0,1,1.013-.445,4.606,4.606,0,0,1,1.158-.147,4.445,4.445,0,0,1,1.961.324v1.2a3.559,3.559,0,0,0-2.069-.558,3.4,3.4,0,0,0-.7.073,1.956,1.956,0,0,0-.622.238,1.379,1.379,0,0,0-.445.426,1.127,1.127,0,0,0-.171.635,1.309,1.309,0,0,0,.13.6,1.468,1.468,0,0,0,.384.464,3.828,3.828,0,0,0,.619.408q.365.2.841.431t.927.508a4.285,4.285,0,0,1,.768.589,2.644,2.644,0,0,1,.524.717,2.016,2.016,0,0,1,.193.9,2.289,2.289,0,0,1-.263,1.139,2.172,2.172,0,0,1-.711.758,3.114,3.114,0,0,1-1.031.423,5.684,5.684,0,0,1-1.232.13A5.222,5.222,0,0,1,789.151,1242.468Zm-22.383-1.216a4.617,4.617,0,0,1-1.168-3.283,4.835,4.835,0,0,1,1.314-3.528,4.46,4.46,0,0,1,3.333-1.346,5.368,5.368,0,0,1,2.146.374v1.137a4.346,4.346,0,0,0-2.158-.545,3.312,3.312,0,0,0-2.543,1.048,3.94,3.94,0,0,0-.975,2.8,3.762,3.762,0,0,0,.911,2.651,3.1,3.1,0,0,0,2.39.986,4.471,4.471,0,0,0,2.374-.61v1.036a5.353,5.353,0,0,1-2.514.533A4.054,4.054,0,0,1,766.768,1241.252Zm62.339,1.1-.965-2.552h-3.859l-.907,2.552h-1.187l3.491-9.1h1.1l3.5,9.1Zm-3.053-7.389-1.416,3.879h3.154l-1.427-3.879a3.71,3.71,0,0,1-.14-.609H826.2A3.4,3.4,0,0,1,826.054,1234.961Zm-8.346,7.389v-8.138h-2.622v-.966H821.4v.966h-2.628v8.138Zm-10.865,0v-9.1h4.621v.966H807.91v3.028H811.2v.958H807.91v3.187h3.758v.965Zm-24.133,0-.965-2.552h-3.859l-.908,2.552h-1.187l3.491-9.1h1.105l3.5,9.1Zm-3.053-7.389-1.416,3.879H781.4l-1.428-3.879a3.718,3.718,0,0,1-.139-.609H779.8A3.4,3.4,0,0,1,779.658,1234.961Zm52.069-16.888a8.3,8.3,0,0,1-2.118-5.944,8.652,8.652,0,0,1,2.2-6.3,7.918,7.918,0,0,1,5.953-2.265,7.178,7.178,0,0,1,5.585,2.2,8.735,8.735,0,0,1,2.008,6.11,8.594,8.594,0,0,1-2.164,6.133,7.584,7.584,0,0,1-5.8,2.3A7.42,7.42,0,0,1,831.727,1218.073Zm1.945-10.671a6.9,6.9,0,0,0-1.437,4.633,6.521,6.521,0,0,0,1.454,4.484,4.938,4.938,0,0,0,3.89,1.641,4.686,4.686,0,0,0,3.82-1.609,6.984,6.984,0,0,0,1.336-4.578,7.1,7.1,0,0,0-1.336-4.625,4.662,4.662,0,0,0-3.82-1.625A4.875,4.875,0,0,0,833.672,1207.4Zm-67.539,9.773a11.648,11.648,0,0,1-2.867-8.171,12.345,12.345,0,0,1,2.922-8.627,10.2,10.2,0,0,1,7.952-3.217,9.613,9.613,0,0,1,7.477,3.124,11.7,11.7,0,0,1,2.836,8.172q0,5.485-2.906,8.672a10.012,10.012,0,0,1-7.781,3.189A9.837,9.837,0,0,1,766.133,1217.175Zm2.086-15.093a11.328,11.328,0,0,0-.055,13.351,7.008,7.008,0,0,0,5.6,2.524,7.361,7.361,0,0,0,5.812-2.407,9.837,9.837,0,0,0,2.125-6.736q0-4.436-2.063-6.858a7.068,7.068,0,0,0-5.687-2.422A7.218,7.218,0,0,0,768.219,1202.082Zm42.156,17.858v-.734l13.016-19.3H811.422v-2.374h16v.624L814.3,1217.567H827.11v2.373Zm-6.672,0-11.532-17.858a7.519,7.519,0,0,1-.719-1.408h-.094a23.015,23.015,0,0,1,.125,3.078v16.188H788.86v-22.4h3.406l11.219,17.578q.7,1.094.905,1.5h.063a23.669,23.669,0,0,1-.157-3.3v-15.78h2.625v22.4Zm-52.938,0v-22.4h2.625v20.031h9v2.373Zm-6.2,0-2.375-6.28h-9.5l-2.234,6.28h-2.922l8.594-22.4h2.719l8.625,22.4Zm-7.516-18.186-3.484,9.547h7.765l-3.515-9.547a9.064,9.064,0,0,1-.344-1.5h-.063A8.275,8.275,0,0,1,737.047,1201.754Z" fill="#002c53"/>
    </g>
    <g id="Group_44" data-name="Group 44" transform="translate(36 -268.009)">
      <g id="Group_44-2" data-name="Group 44" transform="translate(539 1171)">
        <g id="Group_44-3" data-name="Group 44">
          <path id="Shape_42" data-name="Shape 42" d="M59.14,34.875A53.308,53.308,0,0,1,19.908,17.83l-.361-.386.361-.388a53.663,53.663,0,0,1,78.459,0l.362.388-.362.386A53.3,53.3,0,0,1,59.14,34.875ZM21.088,17.443A52.181,52.181,0,0,0,59.14,33.75,52.169,52.169,0,0,0,97.187,17.443a52.542,52.542,0,0,0-76.1,0Z" fill="#a39369"/>
          <path id="Shape_43" data-name="Shape 43" d="M59.476,32.869A15.086,15.086,0,1,1,74.568,17.783,15.109,15.109,0,0,1,59.476,32.869Zm0-29.046a13.96,13.96,0,1,0,13.968,13.96A13.981,13.981,0,0,0,59.476,3.823Z" fill="#a39369"/>
          <path id="Shape_44" data-name="Shape 44" d="M59.4,7.255a10.4,10.4,0,1,0,10.407,10.4A10.4,10.4,0,0,0,59.4,7.255Zm0,14.546a4.147,4.147,0,1,1,4.148-4.146A4.149,4.149,0,0,1,59.4,21.8Z" fill="#a39369"/>
          <text id="ANUBIS" transform="translate(1.483 69.113)" fill="#a39369" font-size="27.403" font-family="SegoeUI, Segoe UI"><tspan x="0" y="0" letter-spacing="0.2em">ANUBI</tspan><tspan y="0">S</tspan></text>
          <text id="ENTERTAINMENT" transform="translate(23.096 83.977)" fill="#f1f2f2" font-size="7.771" font-family="SegoeUI, Segoe UI"><tspan x="0" y="0" letter-spacing="0.2em">ENTERTAINMEN</tspan><tspan y="0">T</tspan></text>
        </g>
      </g>
      <path id="Color_Overlay-3" data-name="Color Overlay" d="M637.666,1254.977v-4.865H636.1v-.577h3.776v.577H638.3v4.865Zm-4.772,0-2.8-4.337a1.768,1.768,0,0,1-.175-.341H629.9a5.5,5.5,0,0,1,.031.747v3.931h-.637v-5.441h.827l2.724,4.269c.113.177.187.3.22.365h.015a5.779,5.779,0,0,1-.038-.8v-3.832h.637v5.441Zm-9.089,0v-5.441h2.762v.577h-2.125v1.81h1.966v.573h-1.966v1.9h2.246v.577Zm-3.619,0v-3.65q0-.432.053-1.058h-.014a3.349,3.349,0,0,1-.164.527l-1.859,4.181h-.311l-1.856-4.151a3.281,3.281,0,0,1-.163-.558h-.015q.031.327.031,1.067v3.642h-.615v-5.441h.842l1.669,3.794a4.867,4.867,0,0,1,.25.653h.023c.109-.3.2-.521.262-.668l1.7-3.779h.8v5.441Zm-8.675,0-2.8-4.337a1.878,1.878,0,0,1-.175-.341h-.022a5.5,5.5,0,0,1,.031.747v3.931h-.637v-5.441h.827l2.724,4.269c.113.177.187.3.22.365h.015a5.781,5.781,0,0,1-.038-.8v-3.832h.637v5.441Zm-7.227,0v-5.441h.637v5.441Zm-3.06,0-.577-1.526h-2.307l-.543,1.526h-.709l2.086-5.441h.661l2.094,5.441Zm-1.825-4.416-.846,2.318h1.885l-.853-2.318a2.245,2.245,0,0,1-.084-.365h-.015A2.006,2.006,0,0,1,599.4,1250.561Zm-5.765,4.416v-4.865h-1.567v-.577h3.775v.577h-1.57v4.865Zm-3.721,0-.911-1.526a3.407,3.407,0,0,0-.243-.363,1.351,1.351,0,0,0-.241-.244.808.808,0,0,0-.266-.139,1.07,1.07,0,0,0-.32-.044h-.524v2.315h-.637v-5.441h1.624a2.316,2.316,0,0,1,.659.089,1.479,1.479,0,0,1,.524.272,1.257,1.257,0,0,1,.346.454,1.5,1.5,0,0,1,.125.635,1.529,1.529,0,0,1-.085.521,1.393,1.393,0,0,1-.243.424,1.485,1.485,0,0,1-.38.317,1.948,1.948,0,0,1-.5.2v.015a1.123,1.123,0,0,1,.237.139,1.262,1.262,0,0,1,.192.184,2.491,2.491,0,0,1,.181.241c.059.09.125.194.2.313l1.021,1.635Zm-2.5-2.892h.866a1.3,1.3,0,0,0,.442-.072,1.021,1.021,0,0,0,.351-.207.943.943,0,0,0,.231-.329,1.1,1.1,0,0,0,.084-.438.852.852,0,0,0-.284-.681,1.215,1.215,0,0,0-.817-.245h-.873Zm-6.122,2.892v-5.441h2.762v.577h-2.125v1.81h1.966v.573h-1.966v1.9h2.246v.577Zm-4.616,0v-4.865H575.1v-.577h3.775v.577h-1.57v4.865Zm-4.772,0-2.8-4.337a1.821,1.821,0,0,1-.175-.341H568.9a5.722,5.722,0,0,1,.03.747v3.931h-.637v-5.441h.827l2.724,4.269c.114.177.187.3.22.365h.014a5.781,5.781,0,0,1-.038-.8v-3.832h.638v5.441Zm-9.089,0v-5.441h2.762v.577h-2.125v1.81h1.966v.573h-1.966v1.9h2.246v.577Zm90.378-14.617q-.668-.073-1.364-.214a11.188,11.188,0,0,1-1.318-.347,4.115,4.115,0,0,1-1-.462v-2.65a5.125,5.125,0,0,0,1.091.723,8.734,8.734,0,0,0,1.337.542,10.577,10.577,0,0,0,1.412.341,7.892,7.892,0,0,0,1.311.121,5.139,5.139,0,0,0,3.1-.77,2.886,2.886,0,0,0,.682-3.566,3.85,3.85,0,0,0-.943-1.05,9.331,9.331,0,0,0-1.426-.91q-.822-.435-1.773-.916-1-.509-1.873-1.03a8.153,8.153,0,0,1-1.512-1.151,4.8,4.8,0,0,1-1.011-1.425,4.864,4.864,0,0,1,.208-4.148,4.93,4.93,0,0,1,1.512-1.6,6.852,6.852,0,0,1,2.134-.936,9.774,9.774,0,0,1,2.443-.308,9.355,9.355,0,0,1,4.135.682v2.529a7.5,7.5,0,0,0-4.362-1.178,7.181,7.181,0,0,0-1.472.154,4.156,4.156,0,0,0-1.311.5,2.906,2.906,0,0,0-.936.9,2.377,2.377,0,0,0-.362,1.338,2.755,2.755,0,0,0,.274,1.271,3.116,3.116,0,0,0,.81.977,8.028,8.028,0,0,0,1.3.856q.77.414,1.773.91,1.03.509,1.954,1.07a9,9,0,0,1,1.619,1.245,5.543,5.543,0,0,1,1.1,1.512,4.255,4.255,0,0,1,.409,1.9,4.823,4.823,0,0,1-.555,2.4,4.569,4.569,0,0,1-1.5,1.6,6.537,6.537,0,0,1-2.174.889,11.922,11.922,0,0,1-2.6.275A10.464,10.464,0,0,1,653.188,1240.36Zm-61.294-7.7v-11.735h2.248v11.589q0,5.9,4.977,5.9,4.8,0,4.8-5.7v-11.789h2.248v11.427q0,8.082-7.293,8.082Q591.894,1240.434,591.894,1232.66Zm45.738,7.453v-19.188h2.247v19.188Zm-21.19,0v-19.188H621.9a5.965,5.965,0,0,1,3.947,1.218,3.935,3.935,0,0,1,1.459,3.172,4.668,4.668,0,0,1-.883,2.837,4.764,4.764,0,0,1-2.435,1.713v.053a4.882,4.882,0,0,1,3.1,1.465,4.509,4.509,0,0,1,1.165,3.218,5.017,5.017,0,0,1-1.767,3.987,6.574,6.574,0,0,1-4.456,1.525Zm2.247-2.034h3.051a4.574,4.574,0,0,0,3.071-.936,3.209,3.209,0,0,0,1.091-2.569q0-3.4-4.63-3.4H618.69Zm0-8.924h2.3a4.372,4.372,0,0,0,2.9-.89,3.1,3.1,0,0,0,1.057-2.508q0-2.8-3.679-2.8H618.69Zm-39.823,10.958-9.875-15.294a6.444,6.444,0,0,1-.616-1.2h-.08a19.8,19.8,0,0,1,.107,2.636v13.862h-2.248v-19.188h2.917l9.607,15.053q.6.937.776,1.284h.054a20.308,20.308,0,0,1-.134-2.823v-13.514h2.248v19.188Zm-23.5,0-2.034-5.378h-8.135l-1.913,5.378h-2.5l7.359-19.188h2.328l7.386,19.188Zm-6.436-15.574-2.984,8.176h6.65l-3.01-8.176a7.907,7.907,0,0,1-.3-1.285h-.053A7.151,7.151,0,0,1,548.926,1224.538Zm9.982-35.708-.362-.387.362-.387a53.663,53.663,0,0,1,78.459,0l.361.387-.361.387a53.667,53.667,0,0,1-78.459,0Zm1.18-.387a52.545,52.545,0,0,0,76.1,0,52.543,52.543,0,0,0-76.1,0Zm23.291.34a15.094,15.094,0,1,1,15.1,15.087A15.109,15.109,0,0,1,583.379,1188.783Zm1.126,0a13.97,13.97,0,1,0,13.972-13.96A13.983,13.983,0,0,0,584.505,1188.783Zm3.489-.128a10.406,10.406,0,1,1,10.406,10.4A10.4,10.4,0,0,1,587.994,1188.655Zm6.255,0a4.149,4.149,0,1,0,4.151-4.147A4.149,4.149,0,0,0,594.249,1188.655Z" fill="#002c53"/>
      <path id="Color_Overlay-4" data-name="Color Overlay" d="M618.666,1252.977v-4.865H617.1v-.577h3.776v.577H619.3v4.865Zm-4.772,0-2.8-4.337a1.765,1.765,0,0,1-.175-.341H610.9a5.5,5.5,0,0,1,.031.747v3.931h-.637v-5.441h.827l2.724,4.269c.113.177.187.3.22.365h.015a5.781,5.781,0,0,1-.038-.8v-3.832h.637v5.441Zm-9.089,0v-5.441h2.762v.577h-2.125v1.81h1.966v.573h-1.966v1.9h2.246v.577Zm-3.619,0v-3.65q0-.432.053-1.058h-.014a3.352,3.352,0,0,1-.164.527l-1.858,4.181h-.311l-1.856-4.151a3.284,3.284,0,0,1-.163-.558h-.015q.031.327.031,1.067v3.642h-.615v-5.441h.842l1.669,3.794a4.875,4.875,0,0,1,.25.652h.023c.109-.3.2-.521.262-.668l1.7-3.779h.8v5.441Zm-8.675,0-2.8-4.337a1.875,1.875,0,0,1-.175-.341h-.023a5.488,5.488,0,0,1,.031.747v3.931h-.637v-5.441h.827l2.724,4.269c.113.177.187.3.22.365h.015a5.779,5.779,0,0,1-.038-.8v-3.832h.637v5.441Zm-7.227,0v-5.441h.637v5.441Zm-3.06,0-.577-1.526h-2.307l-.543,1.526h-.709l2.086-5.441h.661l2.094,5.441Zm-1.825-4.416-.846,2.318h1.885l-.853-2.318a2.248,2.248,0,0,1-.084-.365h-.015A2.016,2.016,0,0,1,580.4,1248.561Zm-5.765,4.416v-4.865h-1.567v-.577h3.775v.577h-1.57v4.865Zm-3.721,0-.911-1.526a3.432,3.432,0,0,0-.243-.363,1.348,1.348,0,0,0-.241-.244.808.808,0,0,0-.266-.139,1.066,1.066,0,0,0-.32-.044h-.524v2.315h-.637v-5.441h1.624a2.321,2.321,0,0,1,.659.089,1.482,1.482,0,0,1,.524.272,1.257,1.257,0,0,1,.346.454,1.5,1.5,0,0,1,.125.635,1.529,1.529,0,0,1-.085.521,1.392,1.392,0,0,1-.243.424,1.486,1.486,0,0,1-.38.317,1.95,1.95,0,0,1-.5.2v.015a1.129,1.129,0,0,1,.237.139,1.259,1.259,0,0,1,.192.184,2.522,2.522,0,0,1,.181.241c.059.09.125.194.2.313l1.021,1.635Zm-2.5-2.892h.866a1.3,1.3,0,0,0,.442-.072,1.022,1.022,0,0,0,.351-.207.943.943,0,0,0,.231-.329,1.1,1.1,0,0,0,.084-.438.852.852,0,0,0-.284-.681,1.214,1.214,0,0,0-.817-.245h-.873Zm-6.122,2.892v-5.441h2.762v.577h-2.125v1.81h1.966v.573h-1.966v1.9h2.246v.577Zm-4.616,0v-4.865H556.1v-.577h3.775v.577h-1.57v4.865Zm-4.772,0-2.8-4.337a1.819,1.819,0,0,1-.175-.341H549.9a5.71,5.71,0,0,1,.03.747v3.931h-.637v-5.441h.827l2.724,4.269c.114.177.187.3.221.365h.014a5.779,5.779,0,0,1-.038-.8v-3.832h.638v5.441Zm-9.089,0v-5.441h2.762v.577h-2.125v1.81h1.966v.573h-1.966v1.9h2.246v.577Zm90.378-14.617q-.668-.073-1.364-.214a11.211,11.211,0,0,1-1.318-.347,4.115,4.115,0,0,1-1-.462v-2.65a5.127,5.127,0,0,0,1.091.723,8.762,8.762,0,0,0,1.337.542,10.6,10.6,0,0,0,1.412.341,7.878,7.878,0,0,0,1.311.121,5.139,5.139,0,0,0,3.1-.769,2.887,2.887,0,0,0,.682-3.566,3.854,3.854,0,0,0-.943-1.05,9.328,9.328,0,0,0-1.426-.91q-.822-.435-1.773-.916-1-.509-1.873-1.031a8.143,8.143,0,0,1-1.512-1.151,4.8,4.8,0,0,1-1.011-1.425,4.864,4.864,0,0,1,.208-4.148,4.929,4.929,0,0,1,1.512-1.6,6.851,6.851,0,0,1,2.134-.936,9.774,9.774,0,0,1,2.443-.308,9.353,9.353,0,0,1,4.135.682v2.529a7.5,7.5,0,0,0-4.362-1.178,7.189,7.189,0,0,0-1.472.154,4.162,4.162,0,0,0-1.311.5,2.9,2.9,0,0,0-.936.9,2.376,2.376,0,0,0-.362,1.338,2.754,2.754,0,0,0,.275,1.271,3.114,3.114,0,0,0,.81.977,8.027,8.027,0,0,0,1.3.856q.77.414,1.773.91,1.03.509,1.954,1.07a8.995,8.995,0,0,1,1.619,1.245,5.544,5.544,0,0,1,1.1,1.512,4.255,4.255,0,0,1,.409,1.9,4.823,4.823,0,0,1-.555,2.4,4.569,4.569,0,0,1-1.5,1.6,6.536,6.536,0,0,1-2.173.889,11.93,11.93,0,0,1-2.6.274A10.491,10.491,0,0,1,634.188,1238.36Zm-61.294-7.7v-11.735h2.248v11.588q0,5.9,4.977,5.9,4.8,0,4.8-5.7v-11.789h2.248v11.427q0,8.082-7.293,8.082Q572.894,1238.434,572.894,1230.66Zm45.738,7.453v-19.188h2.247v19.188Zm-21.19,0v-19.188H602.9a5.965,5.965,0,0,1,3.946,1.218,3.935,3.935,0,0,1,1.459,3.172,4.668,4.668,0,0,1-.883,2.837,4.763,4.763,0,0,1-2.435,1.713v.053a4.882,4.882,0,0,1,3.1,1.465,4.509,4.509,0,0,1,1.165,3.218,5.017,5.017,0,0,1-1.767,3.987,6.574,6.574,0,0,1-4.456,1.526Zm2.247-2.034h3.051a4.575,4.575,0,0,0,3.071-.936,3.209,3.209,0,0,0,1.091-2.569q0-3.4-4.63-3.4H599.69Zm0-8.924h2.3a4.371,4.371,0,0,0,2.9-.89,3.1,3.1,0,0,0,1.057-2.508q0-2.8-3.679-2.8H599.69Zm-39.823,10.958-9.875-15.294a6.437,6.437,0,0,1-.616-1.2h-.08a19.811,19.811,0,0,1,.107,2.636v13.862h-2.248v-19.188h2.917l9.608,15.053q.6.937.776,1.284h.054a20.3,20.3,0,0,1-.134-2.823v-13.514h2.248v19.188Zm-23.5,0-2.034-5.378h-8.135l-1.913,5.378h-2.5l7.359-19.188h2.328l7.386,19.188Zm-6.436-15.574-2.984,8.176h6.65l-3.01-8.176a7.914,7.914,0,0,1-.3-1.285h-.053A7.153,7.153,0,0,1,529.926,1222.538Zm9.982-35.708-.362-.387.362-.387a53.663,53.663,0,0,1,78.459,0l.361.387-.361.387a53.667,53.667,0,0,1-78.459,0Zm1.18-.387a52.545,52.545,0,0,0,76.1,0,52.543,52.543,0,0,0-76.1,0Zm23.291.34a15.094,15.094,0,1,1,15.1,15.087A15.109,15.109,0,0,1,564.379,1186.783Zm1.126,0a13.97,13.97,0,1,0,13.972-13.96A13.983,13.983,0,0,0,565.505,1186.783Zm3.489-.128a10.406,10.406,0,1,1,10.406,10.4A10.4,10.4,0,0,1,568.994,1186.655Zm6.255,0a4.149,4.149,0,1,0,4.151-4.147A4.149,4.149,0,0,0,575.249,1186.655Z" transform="translate(472)" fill="#002c53"/>
    </g>
    <g id="_9" data-name="9" transform="translate(36 -276.893)">
      <path id="Color_Overlay-5" data-name="Color Overlay" d="M370.2,1244.023a3.731,3.731,0,0,1-1.452-1.4,4.094,4.094,0,0,1,0-4,3.726,3.726,0,0,1,1.452-1.4,4.455,4.455,0,0,1,4.135-.006,3.746,3.746,0,0,1,1.447,1.4,4.084,4.084,0,0,1,0,4.015,3.744,3.744,0,0,1-1.447,1.4,4.459,4.459,0,0,1-4.135-.005Zm.418-6.182a3.01,3.01,0,0,0-1.166,1.144,3.36,3.36,0,0,0,0,3.267,3,3,0,0,0,1.166,1.144,3.512,3.512,0,0,0,3.306,0,2.975,2.975,0,0,0,1.155-1.144,3.4,3.4,0,0,0,0-3.267,2.982,2.982,0,0,0-1.155-1.144,3.52,3.52,0,0,0-3.306,0Zm-13.673,6.188a3.709,3.709,0,0,1-1.441-1.4,4.115,4.115,0,0,1,0-4.015,3.7,3.7,0,0,1,1.446-1.4,4.5,4.5,0,0,1,3.652-.22,3.281,3.281,0,0,1,1.232.836l-.518.517a3.067,3.067,0,0,0-2.277-.913,3.351,3.351,0,0,0-1.661.418,3.063,3.063,0,0,0-1.172,1.144,3.345,3.345,0,0,0,0,3.256,3.051,3.051,0,0,0,1.172,1.144,3.342,3.342,0,0,0,1.661.419,3.024,3.024,0,0,0,2.277-.924l.518.517a3.336,3.336,0,0,1-1.238.842,4.273,4.273,0,0,1-1.589.291A4.2,4.2,0,0,1,356.94,1244.029Zm85.267.44v-2.662l-3.081-5.037H440l2.64,4.323,2.641-4.323h.814l-3.08,5.037v2.662Zm-10.517,0-4.95-6.248v6.248h-.814v-7.7h.671l4.962,6.248v-6.248h.8v7.7Zm-13.4,0-.924-2.057h-4.29l-.923,2.057h-.848l3.521-7.7h.8l3.52,7.7Zm-4.918-2.717h3.7l-1.848-4.135Zm-13.738,2.717v-7.7h2.882a3.477,3.477,0,0,1,2.31.7,2.655,2.655,0,0,1,0,3.866,3.5,3.5,0,0,1-2.31.7h-2.068v2.431Zm.814-3.146H402.5a2.679,2.679,0,0,0,1.75-.5,1.73,1.73,0,0,0,.6-1.413,1.758,1.758,0,0,0-.6-1.436,2.68,2.68,0,0,0-1.75-.5h-2.046Zm-9.6,3.146v-6.16l-3.025,5.18h-.385l-3.025-5.148v6.127h-.781v-7.7h.671l3.344,5.709,3.311-5.709h.671v7.7Zm52.724-14.117v-2.578a7.1,7.1,0,0,0,4.321,1.451q3.164,0,3.164-2.11a1.827,1.827,0,0,0-.271-1.018,2.709,2.709,0,0,0-.733-.74,5.637,5.637,0,0,0-1.084-.579q-.624-.256-1.341-.535a17.346,17.346,0,0,1-1.75-.8,5.3,5.3,0,0,1-1.259-.908,3.386,3.386,0,0,1-.762-1.15,4.064,4.064,0,0,1-.257-1.508,3.587,3.587,0,0,1,.483-1.868,4.3,4.3,0,0,1,1.29-1.362,6,6,0,0,1,1.838-.828,8.164,8.164,0,0,1,2.132-.278,8.588,8.588,0,0,1,3.486.674v2.431a6.791,6.791,0,0,0-3.808-1.084,4.441,4.441,0,0,0-1.216.154,2.981,2.981,0,0,0-.931.432,1.993,1.993,0,0,0-.6.667,1.748,1.748,0,0,0-.212.857,2.046,2.046,0,0,0,.212.981,2.154,2.154,0,0,0,.622.7,4.744,4.744,0,0,0,1,.557q.586.248,1.333.542a18.609,18.609,0,0,1,1.787.784,6.118,6.118,0,0,1,1.347.908,3.55,3.55,0,0,1,.858,1.165,3.763,3.763,0,0,1,.3,1.568,3.692,3.692,0,0,1-.491,1.933,4.2,4.2,0,0,1-1.311,1.363,6,6,0,0,1-1.889.806,9.343,9.343,0,0,1-2.242.264A8.508,8.508,0,0,1,443.571,1230.351Zm-13.99-1.15a8.365,8.365,0,0,1-1.816-5.749,8.2,8.2,0,0,1,1.984-5.706,6.365,6.365,0,0,1,4.929-2.2,5.637,5.637,0,0,1,4.556,1.9,7.935,7.935,0,0,1,1.611,5.287v1.26h-10.59a5.608,5.608,0,0,0,1.347,3.867,4.647,4.647,0,0,0,3.545,1.363,7.371,7.371,0,0,0,4.658-1.67v2.256a8.71,8.71,0,0,1-5.23,1.435A6.341,6.341,0,0,1,429.582,1229.2Zm2.168-10.422a5.523,5.523,0,0,0-1.465,3.179h8.1a4.885,4.885,0,0,0-1-3.237,3.418,3.418,0,0,0-2.747-1.157A3.88,3.88,0,0,0,431.75,1218.779Zm-69.082,6.079v-8.964h2.388v8.583q0,4.747,3.633,4.747a3.673,3.673,0,0,0,2.893-1.3,4.959,4.959,0,0,0,1.136-3.391v-8.642h2.4v15h-2.4v-2.373h-.059a4.934,4.934,0,0,1-4.63,2.725Q362.668,1231.245,362.668,1224.858Zm-16.3,4.285a7.786,7.786,0,0,1-1.984-5.574,8.111,8.111,0,0,1,2.065-5.9,7.427,7.427,0,0,1,5.581-2.124,6.729,6.729,0,0,1,5.237,2.065,8.191,8.191,0,0,1,1.882,5.728,8.057,8.057,0,0,1-2.029,5.749,7.109,7.109,0,0,1-5.442,2.161A6.958,6.958,0,0,1,346.371,1229.143Zm1.824-10a6.464,6.464,0,0,0-1.348,4.344,6.119,6.119,0,0,0,1.363,4.2,4.631,4.631,0,0,0,3.648,1.538,4.391,4.391,0,0,0,3.581-1.509,6.545,6.545,0,0,0,1.253-4.292,6.656,6.656,0,0,0-1.253-4.335,4.371,4.371,0,0,0-3.581-1.524A4.567,4.567,0,0,0,348.2,1219.138Zm-15.352,12.026q-.732-.08-1.494-.234a12.222,12.222,0,0,1-1.443-.381,4.494,4.494,0,0,1-1.092-.506v-2.9a5.623,5.623,0,0,0,1.194.79,9.628,9.628,0,0,0,1.464.594,11.71,11.71,0,0,0,1.546.374,8.671,8.671,0,0,0,1.436.131,5.626,5.626,0,0,0,3.391-.842,3.159,3.159,0,0,0,.747-3.9,4.21,4.21,0,0,0-1.033-1.15,10.282,10.282,0,0,0-1.56-1q-.9-.475-1.941-1-1.1-.556-2.05-1.128a8.868,8.868,0,0,1-1.656-1.26,5.256,5.256,0,0,1-1.106-1.56,5.321,5.321,0,0,1,.228-4.541,5.4,5.4,0,0,1,1.655-1.75,7.511,7.511,0,0,1,2.336-1.025,10.723,10.723,0,0,1,2.673-.337,10.24,10.24,0,0,1,4.527.747v2.768a8.2,8.2,0,0,0-4.775-1.289,7.842,7.842,0,0,0-1.612.168,4.57,4.57,0,0,0-1.435.549,3.185,3.185,0,0,0-1.025.982,2.6,2.6,0,0,0-.4,1.464,3.026,3.026,0,0,0,.3,1.392,3.418,3.418,0,0,0,.887,1.069,8.8,8.8,0,0,0,1.428.937q.842.455,1.94,1,1.129.556,2.139,1.172a9.771,9.771,0,0,1,1.772,1.363,6.051,6.051,0,0,1,1.209,1.655,4.652,4.652,0,0,1,.446,2.08,5.28,5.28,0,0,1-.608,2.63,5,5,0,0,1-1.641,1.75,7.163,7.163,0,0,1-2.381.974,13.007,13.007,0,0,1-2.842.3A11.546,11.546,0,0,1,332.843,1231.164Zm125.141-4.343v-8.877h-2.578v-2.05h2.578v-3.662l2.4-.777v4.439h3.779v2.05h-3.779v8.452a3.509,3.509,0,0,0,.512,2.154,2.048,2.048,0,0,0,1.7.644,2.526,2.526,0,0,0,1.568-.5v2.05a4.622,4.622,0,0,1-2.241.469Q457.985,1231.215,457.985,1226.821Zm-77.241,0v-8.877h-2.578v-2.05h2.578v-3.662l2.4-.777v4.439h3.779v2.05h-3.779v8.452a3.5,3.5,0,0,0,.513,2.154,2.047,2.047,0,0,0,1.7.644,2.523,2.523,0,0,0,1.567-.5v2.05a4.623,4.623,0,0,1-2.241.469Q380.744,1231.215,380.744,1226.821Zm38.276,4.073-3.091-10.737a6.989,6.989,0,0,1-.234-1.391h-.059a6.543,6.543,0,0,1-.307,1.362l-3.355,10.767h-2.4l-4.54-15h2.519l3.106,11.279a6.814,6.814,0,0,1,.2,1.347h.118a6.255,6.255,0,0,1,.264-1.376l3.457-11.25h2.2L420,1227.2a8.082,8.082,0,0,1,.22,1.347h.117a6.237,6.237,0,0,1,.249-1.347l3.047-11.309h2.373l-4.5,15Zm-18.838,0v-8.643q0-4.687-3.486-4.687a3.8,3.8,0,0,0-2.959,1.355,5.047,5.047,0,0,0-1.2,3.479v8.5h-2.4v-22.207h2.4v9.7h.059a5.457,5.457,0,0,1,4.922-2.841q5.068,0,5.068,6.108v9.243Z" fill="#002c53"/>
    </g>
    <g id="_9-2" data-name="9" transform="translate(1108.007 -276.893)">
      <g id="_9-3" data-name="9" transform="translate(333 1203)">
        <g id="_9-4" data-name="9">
          <text id="Southwest" transform="translate(62.993 27.893)" fill="#747474" font-size="30" font-family="Pacifico-Regular, Pacifico"><tspan x="-50" y="0">Southwest</tspan></text>
          <text id="COMPANY" transform="translate(67.253 41.468)" fill="#747474" font-size="11" font-family="Montserrat-Regular, Montserrat" letter-spacing="0.5em"><tspan x="-45" y="0">COMPANY</tspan></text>
        </g>
      </g>
    </g>
  </g>
</svg>
